<svg width="25" height="20" viewBox="0 0 25 20" fill="none" xmlns="http://www.w3.org/2000/svg">
<path d="M23.5339 0.00242437C21.1554 0.141263 16.428 0.646618 13.5095 2.48411C13.3082 2.61089 13.194 2.83634 13.194 3.07205V19.3162C13.194 19.8318 13.7422 20.1577 14.2044 19.9184C17.207 18.3639 21.5495 17.9398 23.6966 17.8238C24.4297 17.784 24.9996 17.1796 24.9996 16.455V1.37295C25 0.582332 24.3333 -0.044004 23.5339 0.00242437ZM11.49 2.48411C8.57205 0.646618 3.84462 0.141709 1.46615 0.00242437C0.666667 -0.044004 0 0.582332 0 1.37295V16.4555C0 17.1805 0.569878 17.7849 1.30295 17.8242C3.45095 17.9403 7.79557 18.3648 10.7982 19.9202C11.2591 20.159 11.8056 19.8336 11.8056 19.3193V3.06402C11.8056 2.82786 11.6918 2.61134 11.49 2.48411Z" fill="#5A6A72"/>
</svg>
