<svg width="22" height="20" viewBox="0 0 22 20" fill="none" xmlns="http://www.w3.org/2000/svg">
<path d="M6.41665 8.21429V11.7857C6.41665 12.3775 5.95495 12.8571 5.3854 12.8571H1.03125C0.461699 12.8571 0 12.3775 0 11.7857V8.21429C0 7.62254 0.461699 7.14286 1.03125 7.14286H5.3854C5.95495 7.14286 6.41665 7.62254 6.41665 8.21429ZM0 15.3571V18.9286C0 19.5203 0.461699 20 1.03125 20H5.3854C5.95495 20 6.41665 19.5203 6.41665 18.9286V15.3571C6.41665 14.7654 5.95495 14.2857 5.3854 14.2857H1.03125C0.461699 14.2857 0 14.7654 0 15.3571ZM5.3854 0H1.03125C0.461699 0 0 0.479688 0 1.07143V4.64286C0 5.2346 0.461699 5.71429 1.03125 5.71429H5.3854C5.95495 5.71429 6.41665 5.2346 6.41665 4.64286V1.07143C6.41665 0.479688 5.95495 0 5.3854 0ZM8.8229 20H20.9688C21.5383 20 22 19.5203 22 18.9286V15.3571C22 14.7654 21.5383 14.2857 20.9688 14.2857H8.8229C8.25335 14.2857 7.79165 14.7654 7.79165 15.3571V18.9286C7.79165 19.5203 8.25335 20 8.8229 20ZM7.79165 1.07143V4.64286C7.79165 5.2346 8.25335 5.71429 8.8229 5.71429H20.9688C21.5383 5.71429 22 5.2346 22 4.64286V1.07143C22 0.479688 21.5383 0 20.9688 0H8.8229C8.25335 0 7.79165 0.479688 7.79165 1.07143ZM8.8229 12.8571H20.9688C21.5383 12.8571 22 12.3775 22 11.7857V8.21429C22 7.62254 21.5383 7.14286 20.9688 7.14286H8.8229C8.25335 7.14286 7.79165 7.62254 7.79165 8.21429V11.7857C7.79165 12.3775 8.25335 12.8571 8.8229 12.8571Z" fill="#5A6A72"/>
</svg>
